<svg width="17" height="17" viewBox="0 0 17 17" fill="none" xmlns="http://www.w3.org/2000/svg">
<g clip-path="url(#clip0_5308_38286)">
<path d="M6.66211 1.83331H3.99544C3.25906 1.83331 2.66211 2.43027 2.66211 3.16665V5.83331C2.66211 6.56969 3.25906 7.16665 3.99544 7.16665H6.66211C7.39849 7.16665 7.99544 6.56969 7.99544 5.83331V3.16665C7.99544 2.43027 7.39849 1.83331 6.66211 1.83331Z" stroke="#E6704B" stroke-width="2" stroke-linecap="round" stroke-linejoin="round"/>
<path d="M6.66211 9.83331H3.99544C3.25906 9.83331 2.66211 10.4303 2.66211 11.1666V13.8333C2.66211 14.5697 3.25906 15.1666 3.99544 15.1666H6.66211C7.39849 15.1666 7.99544 14.5697 7.99544 13.8333V11.1666C7.99544 10.4303 7.39849 9.83331 6.66211 9.83331Z" stroke="#E6704B" stroke-width="2" stroke-linecap="round" stroke-linejoin="round"/>
<path d="M13.9961 11.1666H9.99609" stroke="#E6704B" stroke-width="2" stroke-linecap="round" stroke-linejoin="round"/>
<path d="M12.6628 13.8333H9.99609" stroke="#E6704B" stroke-width="2" stroke-linecap="round" stroke-linejoin="round"/>
<path d="M12.6628 5.83331H9.99609" stroke="#E6704B" stroke-width="2" stroke-linecap="round" stroke-linejoin="round"/>
<path d="M13.9961 3.16663H9.99609" stroke="#E6704B" stroke-width="2" stroke-linecap="round" stroke-linejoin="round"/>
</g>
<defs>
<clipPath id="clip0_5308_38286">
<rect width="16" height="16" fill="white" transform="translate(0.328125 0.5)"/>
</clipPath>
</defs>
</svg>
