<svg width="17" height="17" viewBox="0 0 17 17" fill="none" xmlns="http://www.w3.org/2000/svg">
<g clip-path="url(#clip0_5308_38281)">
<path fill-rule="evenodd" clip-rule="evenodd" d="M9.20094 3.76001C9.83746 3.12349 10.7008 2.7659 11.6009 2.7659C12.5011 2.7659 13.3644 3.12349 14.0009 3.76001C14.6375 4.39653 14.9951 5.25984 14.9951 6.16001C14.9951 7.06019 14.6375 7.92349 14.0009 8.56001L13.1276 9.43334L8.3276 14.2333L3.5276 9.43334L2.65427 8.56001C2.01775 7.92349 1.66016 7.06019 1.66016 6.16001C1.66016 5.25984 2.01775 4.39653 2.65427 3.76001C3.29079 3.12349 4.15409 2.7659 5.05427 2.7659C5.95444 2.7659 6.81775 3.12349 7.45427 3.76001L8.3276 4.63334L9.20094 3.76001Z" stroke="#E6704B" stroke-width="2" stroke-linecap="round" stroke-linejoin="round"/>
</g>
<defs>
<clipPath id="clip0_5308_38281">
<rect width="16" height="16" fill="white" transform="translate(0.328125 0.5)"/>
</clipPath>
</defs>
</svg>
